Coordinates
version=1
nRows=66
nColumns=19
inDegrees=yes

Units are S.I. units (second, meters, Newtons, ...)
Angles are in degrees.

endheader
time	1_Force_X	1_Force_Y	1_Force_Z	1_Moment_X	1_Moment_Y	1_Moment_Z	1_COP_X	1_COP_Y	1_COP_Z	2_Force_X	2_Force_Y	2_Force_Z	2_Moment_X	2_Moment_Y	2_Moment_Z	2_COP_X	2_COP_Y	2_COP_Z
0.0075	-6.449	344.183	-22.141	-13.625	5.745	17.402	51.767	0.000	42.454	1.404	472.179	21.176	-49.422	-0.182	-4.731	-9.853	0.000	102.146
0.0100	-6.359	343.485	-22.143	-13.802	5.726	17.437	51.961	0.000	43.057	2.104	471.838	21.268	-49.508	-0.089	-4.784	-10.039	0.000	102.395
0.0125	-6.668	344.007	-22.098	-13.758	5.689	17.385	51.772	0.000	42.859	2.280	471.324	21.180	-49.419	-0.024	-4.819	-10.142	0.000	102.326
0.0150	-6.803	345.743	-22.057	-13.780	5.699	17.420	51.634	0.000	42.700	2.107	472.868	20.789	-49.506	-0.062	-4.575	-9.576	0.000	102.212
0.0175	-6.844	345.569	-21.970	-13.956	5.690	17.561	52.072	0.000	43.221	2.544	472.696	20.836	-49.528	-0.062	-4.575	-9.622	0.000	102.292
0.0200	-6.624	344.348	-21.837	-14.069	5.680	17.385	51.716	0.000	43.683	2.717	472.185	21.186	-49.549	0.049	-4.697	-9.908	0.000	102.412
0.0225	-6.841	344.700	-21.705	-14.067	5.671	17.543	52.150	0.000	43.618	2.721	473.040	20.620	-49.593	-0.007	-4.627	-9.742	0.000	102.375
0.0250	-6.929	344.524	-21.750	-14.156	5.643	17.543	52.189	0.000	43.904	2.895	473.729	20.756	-49.745	0.030	-4.489	-9.451	0.000	102.534
0.0275	-7.106	344.522	-21.794	-14.179	5.615	17.456	51.958	0.000	43.977	3.291	474.076	20.672	-49.765	0.141	-4.506	-9.520	0.000	102.507
0.0300	-7.147	343.308	-21.658	-14.158	5.587	17.420	52.043	0.000	44.053	3.421	473.906	20.804	-49.786	0.187	-4.489	-9.500	0.000	102.576
0.0325	-7.678	343.827	-21.571	-14.402	5.578	17.333	51.781	0.000	44.685	3.771	474.250	20.810	-49.983	0.206	-4.420	-9.380	0.000	102.918
0.0350	-7.629	341.917	-21.391	-14.316	5.512	17.227	51.753	0.000	44.658	3.946	474.769	20.900	-49.981	0.289	-4.420	-9.387	0.000	102.791
0.0375	-7.894	341.561	-21.393	-14.584	5.409	17.105	51.484	0.000	45.490	4.293	473.744	21.602	-50.134	0.419	-4.594	-9.810	0.000	103.270
0.0400	-8.379	340.179	-21.211	-14.739	5.484	17.034	51.548	0.000	46.105	4.555	473.232	21.646	-50.177	0.502	-4.525	-9.700	0.000	103.468
0.0425	-8.288	339.478	-21.211	-14.697	5.371	16.947	51.384	0.000	46.077	4.816	472.891	21.823	-50.309	0.558	-4.404	-9.476	0.000	103.804
0.0450	-8.988	338.967	-20.632	-14.719	5.362	16.912	51.451	0.000	46.135	4.859	472.376	21.867	-50.419	0.586	-4.386	-9.455	0.000	104.147
0.0475	-9.030	337.052	-20.763	-14.919	5.324	16.876	51.642	0.000	47.010	4.726	471.519	22.039	-50.486	0.586	-4.230	-9.128	0.000	104.463
0.0500	-9.203	336.009	-20.320	-15.010	5.259	16.736	51.407	0.000	47.366	4.987	470.664	22.302	-50.551	0.698	-4.179	-9.061	0.000	104.765
0.0525	-9.461	334.618	-19.700	-15.080	5.146	16.543	51.078	0.000	47.687	5.420	468.262	22.737	-50.640	0.764	-4.196	-9.189	0.000	105.454
0.0550	-9.414	330.608	-19.522	-15.594	5.015	16.227	50.731	0.000	49.797	5.719	466.211	23.870	-50.639	0.922	-4.180	-9.225	0.000	105.805
0.0575	-9.709	327.486	-18.545	-15.752	4.912	16.121	50.929	0.000	50.619	5.891	464.667	24.218	-50.685	0.969	-4.215	-9.349	0.000	106.221
0.0600	-9.477	323.487	-17.792	-16.065	4.808	16.016	51.194	0.000	52.108	6.021	463.470	24.479	-50.727	1.099	-4.146	-9.238	0.000	106.563
0.0625	-9.823	320.357	-17.125	-16.357	4.695	15.717	50.809	0.000	53.435	5.969	460.385	25.433	-50.839	1.184	-4.008	-8.997	0.000	107.428
0.0650	-10.296	318.972	-15.797	-16.471	4.583	15.594	50.710	0.000	53.834	6.054	459.353	25.518	-50.885	1.138	-3.938	-8.875	0.000	107.762
0.0675	-10.282	314.105	-14.864	-16.676	4.395	15.313	50.593	0.000	55.187	5.568	456.784	26.296	-50.886	1.259	-3.869	-8.727	0.000	108.294
0.0700	-10.182	310.107	-13.756	-17.012	4.292	15.102	50.545	0.000	56.821	5.781	453.350	26.681	-50.867	1.288	-3.748	-8.549	0.000	109.036
0.0725	-9.989	304.018	-12.383	-17.660	4.132	14.803	50.539	0.000	59.886	5.818	450.097	27.854	-50.867	1.484	-3.888	-8.928	0.000	109.708
0.0750	-9.931	300.711	-11.190	-17.975	3.926	14.628	50.499	0.000	61.413	5.856	446.666	28.324	-50.736	1.569	-3.698	-8.577	0.000	110.213
0.0775	-10.044	296.542	-9.551	-18.246	3.748	14.417	50.510	0.000	62.939	5.720	442.204	28.792	-50.717	1.663	-3.611	-8.457	0.000	111.238
0.0800	-10.073	292.025	-8.178	-18.648	3.625	14.223	50.627	0.000	65.079	5.759	437.052	28.905	-50.302	1.729	-3.490	-8.287	0.000	111.593
0.0825	-10.015	287.853	-6.937	-18.897	3.466	13.907	50.249	0.000	66.693	5.361	432.589	29.281	-50.063	1.786	-3.334	-7.972	0.000	112.156
0.0850	-9.998	284.552	-5.608	-18.925	3.259	13.714	50.146	0.000	67.350	5.051	427.778	29.129	-49.714	1.778	-3.004	-7.260	0.000	112.624
0.0875	-9.976	278.303	-3.922	-19.394	3.146	13.590	50.815	0.000	70.274	4.653	421.765	29.104	-49.169	1.761	-2.795	-6.831	0.000	112.946
0.0900	-9.399	274.286	-3.571	-19.843	2.958	13.204	50.052	0.000	72.883	4.733	413.693	29.511	-48.471	1.810	-2.796	-6.979	0.000	113.425
0.0925	-9.291	268.560	-2.192	-19.914	2.817	13.028	50.435	0.000	74.470	4.427	405.273	28.648	-47.749	1.895	-2.535	-6.453	0.000	114.109
0.0950	-9.497	264.403	-1.076	-19.806	2.787	12.816	50.457	0.000	75.041	3.593	397.878	28.085	-46.832	1.749	-2.169	-5.563	0.000	113.999
0.0975	-9.221	259.708	-0.541	-19.834	2.590	12.552	50.299	0.000	76.412	3.331	388.595	26.954	-45.826	1.742	-1.926	-5.045	0.000	114.279
0.1000	-8.241	253.268	-0.183	-20.060	2.457	12.270	50.280	0.000	79.188	3.105	378.112	26.644	-44.514	1.679	-1.578	-4.246	0.000	114.025
0.1025	-7.963	247.191	0.402	-20.021	2.353	12.023	50.457	0.000	80.867	2.234	366.249	25.016	-43.025	1.682	-1.386	-3.761	0.000	113.874
0.1050	-7.467	240.597	0.504	-19.780	2.313	11.811	50.853	0.000	82.068	1.490	354.897	23.432	-41.628	1.490	-0.985	-2.664	0.000	113.799
0.1075	-6.711	234.689	0.690	-19.652	2.264	11.440	50.401	0.000	83.553	0.312	342.000	21.665	-40.053	1.401	-0.619	-1.548	0.000	113.742
0.1100	-6.088	229.482	0.349	-19.278	2.271	11.246	50.564	0.000	83.887	-0.604	327.895	19.368	-38.217	1.209	-0.097	0.095	0.000	113.377
0.1125	-5.331	223.757	0.053	-18.837	2.278	11.103	51.058	0.000	84.124	-2.044	315.677	17.074	-36.403	0.906	0.287	1.513	0.000	112.372
0.1150	-4.400	217.161	-0.197	-18.354	2.284	10.750	50.777	0.000	84.508	-3.613	300.365	14.421	-34.659	0.651	0.689	3.153	0.000	112.722
0.1175	-3.998	211.261	-0.933	-17.936	2.263	10.555	51.175	0.000	85.049	-5.141	286.432	12.251	-32.713	0.432	1.090	4.937	0.000	111.783
0.1200	-2.677	204.655	-1.805	-17.673	2.315	10.219	50.882	0.000	86.706	-6.757	270.781	10.164	-30.747	0.232	1.317	6.319	0.000	111.366
0.1225	-2.066	198.753	-3.070	-17.233	2.415	9.848	50.377	0.000	87.355	-8.368	258.218	7.474	-28.911	-0.034	1.702	8.386	0.000	110.175
0.1250	-1.401	191.643	-4.066	-16.614	2.496	9.652	51.052	0.000	87.606	-9.849	245.140	4.828	-27.164	-0.318	2.190	11.088	0.000	109.449
0.1275	-0.609	183.832	-5.459	-15.998	2.557	9.263	50.894	0.000	88.320	-11.459	232.402	2.053	-25.551	-0.611	2.401	12.905	0.000	109.079
0.1300	0.010	178.114	-6.854	-15.156	2.638	9.172	51.850	0.000	86.790	-13.285	221.723	-1.245	-23.715	-0.980	2.820	15.782	0.000	106.758
0.1325	0.530	172.556	-8.604	-14.584	2.701	8.766	51.019	0.000	86.728	-14.762	210.186	-4.234	-22.189	-1.301	3.031	17.959	0.000	106.036
0.1350	1.058	165.793	-9.998	-14.009	2.819	8.553	51.653	0.000	87.183	-16.280	200.882	-7.477	-20.770	-1.623	3.225	20.088	0.000	104.651
0.1375	1.667	159.722	-11.567	-13.171	2.927	8.059	50.336	0.000	85.696	-17.710	191.756	-10.412	-19.415	-1.807	3.591	23.284	0.000	103.288
0.1400	2.635	151.556	-13.140	-12.819	2.979	7.722	50.520	0.000	88.470	-19.100	183.318	-12.775	-18.126	-2.027	3.506	24.227	0.000	101.630
0.1425	3.336	144.618	-14.578	-12.201	3.125	7.403	50.500	0.000	88.891	-20.750	176.252	-15.398	-16.948	-2.312	3.630	26.318	0.000	99.721
0.1450	3.998	137.160	-15.837	-11.473	3.196	7.067	50.554	0.000	88.836	-21.877	169.358	-17.972	-15.945	-2.579	3.875	29.131	0.000	98.577
0.1475	4.657	132.137	-17.099	-10.653	3.352	6.888	50.886	0.000	86.447	-23.221	165.219	-20.232	-15.048	-2.764	4.015	31.078	0.000	96.258
0.1500	5.582	125.893	-18.054	-10.035	3.460	6.622	50.946	0.000	86.170	-24.265	159.358	-22.099	-14.376	-3.058	4.174	33.504	0.000	96.139
0.1525	6.148	118.952	-19.711	-9.396	3.587	6.181	49.968	0.000	86.457	-24.870	155.569	-23.388	-13.786	-3.113	4.192	34.608	0.000	95.076
0.1550	6.939	113.402	-21.019	-8.754	3.706	5.985	50.354	0.000	85.558	-25.311	151.094	-23.671	-13.309	-3.306	4.193	35.764	0.000	94.838
0.1575	7.950	106.809	-22.150	-8.224	3.861	5.701	50.353	0.000	86.359	-25.881	148.686	-23.818	-12.939	-3.417	4.297	37.219	0.000	93.936
0.1600	8.872	102.293	-23.244	-7.804	3.933	5.506	50.245	0.000	86.558	-26.146	146.280	-23.787	-12.566	-3.435	4.349	38.265	0.000	92.932
0.1625	9.616	97.085	-24.248	-7.628	4.108	5.258	50.019	0.000	89.854	-26.201	143.538	-22.441	-12.437	-3.443	4.331	38.883	0.000	93.386
0.1650	10.673	92.050	-25.164	-7.186	4.180	5.098	50.475	0.000	90.425	-26.384	141.997	-21.530	-12.351	-3.461	4.331	39.358	0.000	93.504
0.1675	11.291	87.373	-26.120	-6.609	4.337	5.060	52.405	0.000	89.162	-27.001	141.825	-21.011	-12.332	-3.581	4.435	40.341	0.000	93.313
0.1700	12.123	84.598	-26.906	-6.122	4.456	4.866	51.365	0.000	86.756	-27.010	139.599	-19.839	-12.157	-3.534	4.452	41.101	0.000	93.167
